<svg width="500" height="500" viewBox="0 0 500 500" fill="none" xmlns="http://www.w3.org/2000/svg">
<path d="M461 39L461 56.4183C461 95.8069 449.23 132.456 429.03 163.025C394.393 215.427 334.942 250 267.418 250L250 250L250 39L461 39Z" fill="#F35300"/>
<path d="M250 461L250 443.582C250 395.921 267.218 352.286 295.785 318.556C331.296 276.628 384.33 250 443.582 250L461 250L461 461L250 461Z" fill="#35AF25"/>
<path d="M39 250L39 232.582C39 165.764 72.8565 106.85 124.353 72.0557C155.248 51.1812 192.498 39 232.582 39L250 39L250 250L39 250Z" fill="#FF2B2B"/>
<path d="M250 461L232.582 461C179.126 461 130.728 439.335 95.7015 404.299C60.6648 369.262 39 320.874 39 267.418L39 250L250 250L250 461Z" fill="#2C4FFF"/>
</svg>
